<?xml version="1.0" encoding="utf-8" standalone="no"?>
<!DOCTYPE svg PUBLIC "-//W3C//DTD SVG 1.1//EN"
  "http://www.w3.org/Graphics/SVG/1.1/DTD/svg11.dtd">
<svg xmlns:xlink="http://www.w3.org/1999/xlink" width="242.083438pt" height="277.814063pt" viewBox="0 0 242.083438 277.814063" xmlns="http://www.w3.org/2000/svg" version="1.1">
 <metadata>
  <rdf:RDF xmlns:dc="http://purl.org/dc/elements/1.1/" xmlns:cc="http://creativecommons.org/ns#" xmlns:rdf="http://www.w3.org/1999/02/22-rdf-syntax-ns#">
   <cc:Work>
    <dc:type rdf:resource="http://purl.org/dc/dcmitype/StillImage"/>
    <dc:date>2025-06-20T21:55:44.468677</dc:date>
    <dc:format>image/svg+xml</dc:format>
    <dc:creator>
     <cc:Agent>
      <dc:title>Matplotlib v3.10.3, https://matplotlib.org/</dc:title>
     </cc:Agent>
    </dc:creator>
   </cc:Work>
  </rdf:RDF>
 </metadata>
 <defs>
  <style type="text/css">*{stroke-linejoin: round; stroke-linecap: butt}</style>
 </defs>
 <g id="figure_1">
  <g id="patch_1">
   <path d="M 0 277.814063
L 242.083438 277.814063
L 242.083438 0
L 0 0
z
" style="fill: #ffffff"/>
  </g>
  <g id="axes_1">
   <g id="patch_2">
    <path d="M 35.443438 248.179688
L 238.483438 248.179688
L 238.483438 20.879687
L 35.443438 20.879687
z
" style="fill: #ffffff"/>
   </g>
   <g id="matplotlib.axis_1">
    <g id="xtick_1">
     <g id="line2d_1">
      <path d="M 36.537758 248.179688
L 36.537758 20.879687
" clip-path="url(#pf9a82ac8f4)" style="fill: none; stroke: #b0b0b0; stroke-opacity: 0.2; stroke-width: 0.3; stroke-linecap: square"/>
     </g>
     <g id="line2d_2">
      <defs>
       <path id="m54776928bf" d="M 0 0
L 0 3
" style="stroke: #000000; stroke-width: 0.8"/>
      </defs>
      <g>
       <use xlink:href="#m54776928bf" x="36.537758" y="248.179688" style="stroke: #000000; stroke-width: 0.8"/>
      </g>
     </g>
     <g id="text_1">
      <!-- 1990 -->
      <g transform="translate(27.640258 260.405938) scale(0.08 -0.08)">
       <defs>
        <path id="ArialMT-31" d="M 2384 0
L 1822 0
L 1822 3584
Q 1619 3391 1289 3197
Q 959 3003 697 2906
L 697 3450
Q 1169 3672 1522 3987
Q 1875 4303 2022 4600
L 2384 4600
L 2384 0
z
" transform="scale(0.015625)"/>
        <path id="ArialMT-39" d="M 350 1059
L 891 1109
Q 959 728 1153 556
Q 1347 384 1650 384
Q 1909 384 2104 503
Q 2300 622 2425 820
Q 2550 1019 2634 1356
Q 2719 1694 2719 2044
Q 2719 2081 2716 2156
Q 2547 1888 2255 1720
Q 1963 1553 1622 1553
Q 1053 1553 659 1965
Q 266 2378 266 3053
Q 266 3750 677 4175
Q 1088 4600 1706 4600
Q 2153 4600 2523 4359
Q 2894 4119 3086 3673
Q 3278 3228 3278 2384
Q 3278 1506 3087 986
Q 2897 466 2520 194
Q 2144 -78 1638 -78
Q 1100 -78 759 220
Q 419 519 350 1059
z
M 2653 3081
Q 2653 3566 2395 3850
Q 2138 4134 1775 4134
Q 1400 4134 1122 3828
Q 844 3522 844 3034
Q 844 2597 1108 2323
Q 1372 2050 1759 2050
Q 2150 2050 2401 2323
Q 2653 2597 2653 3081
z
" transform="scale(0.015625)"/>
        <path id="ArialMT-30" d="M 266 2259
Q 266 3072 433 3567
Q 600 4063 929 4331
Q 1259 4600 1759 4600
Q 2128 4600 2406 4451
Q 2684 4303 2865 4023
Q 3047 3744 3150 3342
Q 3253 2941 3253 2259
Q 3253 1453 3087 958
Q 2922 463 2592 192
Q 2263 -78 1759 -78
Q 1097 -78 719 397
Q 266 969 266 2259
z
M 844 2259
Q 844 1131 1108 757
Q 1372 384 1759 384
Q 2147 384 2411 759
Q 2675 1134 2675 2259
Q 2675 3391 2411 3762
Q 2147 4134 1753 4134
Q 1366 4134 1134 3806
Q 844 3388 844 2259
z
" transform="scale(0.015625)"/>
       </defs>
       <use xlink:href="#ArialMT-31"/>
       <use xlink:href="#ArialMT-39" transform="translate(55.615234 0)"/>
       <use xlink:href="#ArialMT-39" transform="translate(111.230469 0)"/>
       <use xlink:href="#ArialMT-30" transform="translate(166.845703 0)"/>
      </g>
     </g>
    </g>
    <g id="xtick_2">
     <g id="line2d_3">
      <path d="M 90.948348 248.179688
L 90.948348 20.879687
" clip-path="url(#pf9a82ac8f4)" style="fill: none; stroke: #b0b0b0; stroke-opacity: 0.2; stroke-width: 0.3; stroke-linecap: square"/>
     </g>
     <g id="line2d_4">
      <g>
       <use xlink:href="#m54776928bf" x="90.948348" y="248.179688" style="stroke: #000000; stroke-width: 0.8"/>
      </g>
     </g>
     <g id="text_2">
      <!-- 2000 -->
      <g transform="translate(82.050848 260.405938) scale(0.08 -0.08)">
       <defs>
        <path id="ArialMT-32" d="M 3222 541
L 3222 0
L 194 0
Q 188 203 259 391
Q 375 700 629 1000
Q 884 1300 1366 1694
Q 2113 2306 2375 2664
Q 2638 3022 2638 3341
Q 2638 3675 2398 3904
Q 2159 4134 1775 4134
Q 1369 4134 1125 3890
Q 881 3647 878 3216
L 300 3275
Q 359 3922 746 4261
Q 1134 4600 1788 4600
Q 2447 4600 2831 4234
Q 3216 3869 3216 3328
Q 3216 3053 3103 2787
Q 2991 2522 2730 2228
Q 2469 1934 1863 1422
Q 1356 997 1212 845
Q 1069 694 975 541
L 3222 541
z
" transform="scale(0.015625)"/>
       </defs>
       <use xlink:href="#ArialMT-32"/>
       <use xlink:href="#ArialMT-30" transform="translate(55.615234 0)"/>
       <use xlink:href="#ArialMT-30" transform="translate(111.230469 0)"/>
       <use xlink:href="#ArialMT-30" transform="translate(166.845703 0)"/>
      </g>
     </g>
    </g>
    <g id="xtick_3">
     <g id="line2d_5">
      <path d="M 145.373837 248.179688
L 145.373837 20.879687
" clip-path="url(#pf9a82ac8f4)" style="fill: none; stroke: #b0b0b0; stroke-opacity: 0.2; stroke-width: 0.3; stroke-linecap: square"/>
     </g>
     <g id="line2d_6">
      <g>
       <use xlink:href="#m54776928bf" x="145.373837" y="248.179688" style="stroke: #000000; stroke-width: 0.8"/>
      </g>
     </g>
     <g id="text_3">
      <!-- 2010 -->
      <g transform="translate(136.476337 260.405938) scale(0.08 -0.08)">
       <use xlink:href="#ArialMT-32"/>
       <use xlink:href="#ArialMT-30" transform="translate(55.615234 0)"/>
       <use xlink:href="#ArialMT-31" transform="translate(111.230469 0)"/>
       <use xlink:href="#ArialMT-30" transform="translate(166.845703 0)"/>
      </g>
     </g>
    </g>
    <g id="xtick_4">
     <g id="line2d_7">
      <path d="M 199.784427 248.179688
L 199.784427 20.879687
" clip-path="url(#pf9a82ac8f4)" style="fill: none; stroke: #b0b0b0; stroke-opacity: 0.2; stroke-width: 0.3; stroke-linecap: square"/>
     </g>
     <g id="line2d_8">
      <g>
       <use xlink:href="#m54776928bf" x="199.784427" y="248.179688" style="stroke: #000000; stroke-width: 0.8"/>
      </g>
     </g>
     <g id="text_4">
      <!-- 2020 -->
      <g transform="translate(190.886927 260.405938) scale(0.08 -0.08)">
       <use xlink:href="#ArialMT-32"/>
       <use xlink:href="#ArialMT-30" transform="translate(55.615234 0)"/>
       <use xlink:href="#ArialMT-32" transform="translate(111.230469 0)"/>
       <use xlink:href="#ArialMT-30" transform="translate(166.845703 0)"/>
      </g>
     </g>
    </g>
    <g id="xtick_5">
     <g id="line2d_9">
      <defs>
       <path id="m645ebf5105" d="M 0 0
L 0 1.5
" style="stroke: #000000; stroke-width: 0.6"/>
      </defs>
      <g>
       <use xlink:href="#m645ebf5105" x="63.743053" y="248.179688" style="stroke: #000000; stroke-width: 0.6"/>
      </g>
     </g>
    </g>
    <g id="xtick_6">
     <g id="line2d_10">
      <g>
       <use xlink:href="#m645ebf5105" x="118.168542" y="248.179688" style="stroke: #000000; stroke-width: 0.6"/>
      </g>
     </g>
    </g>
    <g id="xtick_7">
     <g id="line2d_11">
      <g>
       <use xlink:href="#m645ebf5105" x="172.579132" y="248.179688" style="stroke: #000000; stroke-width: 0.6"/>
      </g>
     </g>
    </g>
    <g id="xtick_8">
     <g id="line2d_12">
      <g>
       <use xlink:href="#m645ebf5105" x="227.004621" y="248.179688" style="stroke: #000000; stroke-width: 0.6"/>
      </g>
     </g>
    </g>
    <g id="text_5">
     <!-- Year -->
     <g transform="translate(127.452969 272.437969) scale(0.09 -0.09)">
      <defs>
       <path id="Arial-BoldMT-59" d="M 1669 0
L 1669 1928
L -9 4581
L 1075 4581
L 2153 2769
L 3209 4581
L 4275 4581
L 2591 1922
L 2591 0
L 1669 0
z
" transform="scale(0.015625)"/>
       <path id="Arial-BoldMT-65" d="M 2381 1056
L 3256 909
Q 3088 428 2723 176
Q 2359 -75 1813 -75
Q 947 -75 531 491
Q 203 944 203 1634
Q 203 2459 634 2926
Q 1066 3394 1725 3394
Q 2466 3394 2894 2905
Q 3322 2416 3303 1406
L 1103 1406
Q 1113 1016 1316 798
Q 1519 581 1822 581
Q 2028 581 2168 693
Q 2309 806 2381 1056
z
M 2431 1944
Q 2422 2325 2234 2523
Q 2047 2722 1778 2722
Q 1491 2722 1303 2513
Q 1116 2303 1119 1944
L 2431 1944
z
" transform="scale(0.015625)"/>
       <path id="Arial-BoldMT-61" d="M 1116 2306
L 319 2450
Q 453 2931 781 3162
Q 1109 3394 1756 3394
Q 2344 3394 2631 3255
Q 2919 3116 3036 2902
Q 3153 2688 3153 2116
L 3144 1091
Q 3144 653 3186 445
Q 3228 238 3344 0
L 2475 0
Q 2441 88 2391 259
Q 2369 338 2359 363
Q 2134 144 1878 34
Q 1622 -75 1331 -75
Q 819 -75 523 203
Q 228 481 228 906
Q 228 1188 362 1408
Q 497 1628 739 1745
Q 981 1863 1438 1950
Q 2053 2066 2291 2166
L 2291 2253
Q 2291 2506 2166 2614
Q 2041 2722 1694 2722
Q 1459 2722 1328 2630
Q 1197 2538 1116 2306
z
M 2291 1594
Q 2122 1538 1756 1459
Q 1391 1381 1278 1306
Q 1106 1184 1106 997
Q 1106 813 1243 678
Q 1381 544 1594 544
Q 1831 544 2047 700
Q 2206 819 2256 991
Q 2291 1103 2291 1419
L 2291 1594
z
" transform="scale(0.015625)"/>
       <path id="Arial-BoldMT-72" d="M 1300 0
L 422 0
L 422 3319
L 1238 3319
L 1238 2847
Q 1447 3181 1614 3287
Q 1781 3394 1994 3394
Q 2294 3394 2572 3228
L 2300 2463
Q 2078 2606 1888 2606
Q 1703 2606 1575 2504
Q 1447 2403 1373 2137
Q 1300 1872 1300 1025
L 1300 0
z
" transform="scale(0.015625)"/>
      </defs>
      <use xlink:href="#Arial-BoldMT-59"/>
      <use xlink:href="#Arial-BoldMT-65" transform="translate(61.199219 0)"/>
      <use xlink:href="#Arial-BoldMT-61" transform="translate(116.814453 0)"/>
      <use xlink:href="#Arial-BoldMT-72" transform="translate(172.429688 0)"/>
     </g>
    </g>
   </g>
   <g id="matplotlib.axis_2">
    <g id="ytick_1">
     <g id="line2d_13">
      <path d="M 35.443438 248.179688
L 238.483438 248.179688
" clip-path="url(#pf9a82ac8f4)" style="fill: none; stroke: #b0b0b0; stroke-opacity: 0.2; stroke-width: 0.3; stroke-linecap: square"/>
     </g>
     <g id="line2d_14">
      <defs>
       <path id="mbea6701243" d="M 0 0
L -3 0
" style="stroke: #000000; stroke-width: 0.8"/>
      </defs>
      <g>
       <use xlink:href="#mbea6701243" x="35.443438" y="248.179688" style="stroke: #000000; stroke-width: 0.8"/>
      </g>
     </g>
     <g id="text_6">
      <!-- 0 -->
      <g transform="translate(24.494688 251.042813) scale(0.08 -0.08)">
       <use xlink:href="#ArialMT-30"/>
      </g>
     </g>
    </g>
    <g id="ytick_2">
     <g id="line2d_15">
      <path d="M 35.443438 204.672133
L 238.483438 204.672133
" clip-path="url(#pf9a82ac8f4)" style="fill: none; stroke: #b0b0b0; stroke-opacity: 0.2; stroke-width: 0.3; stroke-linecap: square"/>
     </g>
     <g id="line2d_16">
      <g>
       <use xlink:href="#mbea6701243" x="35.443438" y="204.672133" style="stroke: #000000; stroke-width: 0.8"/>
      </g>
     </g>
     <g id="text_7">
      <!-- 5k -->
      <g transform="translate(20.494688 207.535258) scale(0.08 -0.08)">
       <defs>
        <path id="ArialMT-35" d="M 266 1200
L 856 1250
Q 922 819 1161 601
Q 1400 384 1738 384
Q 2144 384 2425 690
Q 2706 997 2706 1503
Q 2706 1984 2436 2262
Q 2166 2541 1728 2541
Q 1456 2541 1237 2417
Q 1019 2294 894 2097
L 366 2166
L 809 4519
L 3088 4519
L 3088 3981
L 1259 3981
L 1013 2750
Q 1425 3038 1878 3038
Q 2478 3038 2890 2622
Q 3303 2206 3303 1553
Q 3303 931 2941 478
Q 2500 -78 1738 -78
Q 1113 -78 717 272
Q 322 622 266 1200
z
" transform="scale(0.015625)"/>
        <path id="ArialMT-6b" d="M 425 0
L 425 4581
L 988 4581
L 988 1969
L 2319 3319
L 3047 3319
L 1778 2088
L 3175 0
L 2481 0
L 1384 1697
L 988 1316
L 988 0
L 425 0
z
" transform="scale(0.015625)"/>
       </defs>
       <use xlink:href="#ArialMT-35"/>
       <use xlink:href="#ArialMT-6b" transform="translate(55.615234 0)"/>
      </g>
     </g>
    </g>
    <g id="ytick_3">
     <g id="line2d_17">
      <path d="M 35.443438 161.164578
L 238.483438 161.164578
" clip-path="url(#pf9a82ac8f4)" style="fill: none; stroke: #b0b0b0; stroke-opacity: 0.2; stroke-width: 0.3; stroke-linecap: square"/>
     </g>
     <g id="line2d_18">
      <g>
       <use xlink:href="#mbea6701243" x="35.443438" y="161.164578" style="stroke: #000000; stroke-width: 0.8"/>
      </g>
     </g>
     <g id="text_8">
      <!-- 10k -->
      <g transform="translate(16.045938 164.027703) scale(0.08 -0.08)">
       <use xlink:href="#ArialMT-31"/>
       <use xlink:href="#ArialMT-30" transform="translate(55.615234 0)"/>
       <use xlink:href="#ArialMT-6b" transform="translate(111.230469 0)"/>
      </g>
     </g>
    </g>
    <g id="ytick_4">
     <g id="line2d_19">
      <path d="M 35.443438 117.657023
L 238.483438 117.657023
" clip-path="url(#pf9a82ac8f4)" style="fill: none; stroke: #b0b0b0; stroke-opacity: 0.2; stroke-width: 0.3; stroke-linecap: square"/>
     </g>
     <g id="line2d_20">
      <g>
       <use xlink:href="#mbea6701243" x="35.443438" y="117.657023" style="stroke: #000000; stroke-width: 0.8"/>
      </g>
     </g>
     <g id="text_9">
      <!-- 15k -->
      <g transform="translate(16.045938 120.520148) scale(0.08 -0.08)">
       <use xlink:href="#ArialMT-31"/>
       <use xlink:href="#ArialMT-35" transform="translate(55.615234 0)"/>
       <use xlink:href="#ArialMT-6b" transform="translate(111.230469 0)"/>
      </g>
     </g>
    </g>
    <g id="ytick_5">
     <g id="line2d_21">
      <path d="M 35.443438 74.149468
L 238.483438 74.149468
" clip-path="url(#pf9a82ac8f4)" style="fill: none; stroke: #b0b0b0; stroke-opacity: 0.2; stroke-width: 0.3; stroke-linecap: square"/>
     </g>
     <g id="line2d_22">
      <g>
       <use xlink:href="#mbea6701243" x="35.443438" y="74.149468" style="stroke: #000000; stroke-width: 0.8"/>
      </g>
     </g>
     <g id="text_10">
      <!-- 20k -->
      <g transform="translate(16.045938 77.012593) scale(0.08 -0.08)">
       <use xlink:href="#ArialMT-32"/>
       <use xlink:href="#ArialMT-30" transform="translate(55.615234 0)"/>
       <use xlink:href="#ArialMT-6b" transform="translate(111.230469 0)"/>
      </g>
     </g>
    </g>
    <g id="ytick_6">
     <g id="line2d_23">
      <path d="M 35.443438 30.641913
L 238.483438 30.641913
" clip-path="url(#pf9a82ac8f4)" style="fill: none; stroke: #b0b0b0; stroke-opacity: 0.2; stroke-width: 0.3; stroke-linecap: square"/>
     </g>
     <g id="line2d_24">
      <g>
       <use xlink:href="#mbea6701243" x="35.443438" y="30.641913" style="stroke: #000000; stroke-width: 0.8"/>
      </g>
     </g>
     <g id="text_11">
      <!-- 25k -->
      <g transform="translate(16.045938 33.505038) scale(0.08 -0.08)">
       <use xlink:href="#ArialMT-32"/>
       <use xlink:href="#ArialMT-35" transform="translate(55.615234 0)"/>
       <use xlink:href="#ArialMT-6b" transform="translate(111.230469 0)"/>
      </g>
     </g>
    </g>
    <g id="text_12">
     <!-- Monthly Submissions -->
     <g transform="translate(10.151719 181.029453) rotate(-90) scale(0.09 -0.09)">
      <defs>
       <path id="Arial-BoldMT-4d" d="M 453 0
L 453 4581
L 1838 4581
L 2669 1456
L 3491 4581
L 4878 4581
L 4878 0
L 4019 0
L 4019 3606
L 3109 0
L 2219 0
L 1313 3606
L 1313 0
L 453 0
z
" transform="scale(0.015625)"/>
       <path id="Arial-BoldMT-6f" d="M 256 1706
Q 256 2144 472 2553
Q 688 2963 1083 3178
Q 1478 3394 1966 3394
Q 2719 3394 3200 2905
Q 3681 2416 3681 1669
Q 3681 916 3195 420
Q 2709 -75 1972 -75
Q 1516 -75 1102 131
Q 688 338 472 736
Q 256 1134 256 1706
z
M 1156 1659
Q 1156 1166 1390 903
Q 1625 641 1969 641
Q 2313 641 2545 903
Q 2778 1166 2778 1666
Q 2778 2153 2545 2415
Q 2313 2678 1969 2678
Q 1625 2678 1390 2415
Q 1156 2153 1156 1659
z
" transform="scale(0.015625)"/>
       <path id="Arial-BoldMT-6e" d="M 3478 0
L 2600 0
L 2600 1694
Q 2600 2231 2544 2389
Q 2488 2547 2361 2634
Q 2234 2722 2056 2722
Q 1828 2722 1647 2597
Q 1466 2472 1398 2265
Q 1331 2059 1331 1503
L 1331 0
L 453 0
L 453 3319
L 1269 3319
L 1269 2831
Q 1703 3394 2363 3394
Q 2653 3394 2893 3289
Q 3134 3184 3257 3021
Q 3381 2859 3429 2653
Q 3478 2447 3478 2063
L 3478 0
z
" transform="scale(0.015625)"/>
       <path id="Arial-BoldMT-74" d="M 1981 3319
L 1981 2619
L 1381 2619
L 1381 1281
Q 1381 875 1398 808
Q 1416 741 1477 697
Q 1538 653 1625 653
Q 1747 653 1978 738
L 2053 56
Q 1747 -75 1359 -75
Q 1122 -75 931 4
Q 741 84 652 211
Q 563 338 528 553
Q 500 706 500 1172
L 500 2619
L 97 2619
L 97 3319
L 500 3319
L 500 3978
L 1381 4491
L 1381 3319
L 1981 3319
z
" transform="scale(0.015625)"/>
       <path id="Arial-BoldMT-68" d="M 1334 4581
L 1334 2897
Q 1759 3394 2350 3394
Q 2653 3394 2897 3281
Q 3141 3169 3264 2994
Q 3388 2819 3433 2606
Q 3478 2394 3478 1947
L 3478 0
L 2600 0
L 2600 1753
Q 2600 2275 2550 2415
Q 2500 2556 2373 2639
Q 2247 2722 2056 2722
Q 1838 2722 1666 2615
Q 1494 2509 1414 2295
Q 1334 2081 1334 1663
L 1334 0
L 456 0
L 456 4581
L 1334 4581
z
" transform="scale(0.015625)"/>
       <path id="Arial-BoldMT-6c" d="M 459 0
L 459 4581
L 1338 4581
L 1338 0
L 459 0
z
" transform="scale(0.015625)"/>
       <path id="Arial-BoldMT-79" d="M 44 3319
L 978 3319
L 1772 963
L 2547 3319
L 3456 3319
L 2284 125
L 2075 -453
Q 1959 -744 1854 -897
Q 1750 -1050 1614 -1145
Q 1478 -1241 1279 -1294
Q 1081 -1347 831 -1347
Q 578 -1347 334 -1294
L 256 -606
Q 463 -647 628 -647
Q 934 -647 1081 -467
Q 1228 -288 1306 -9
L 44 3319
z
" transform="scale(0.015625)"/>
       <path id="Arial-BoldMT-20" transform="scale(0.015625)"/>
       <path id="Arial-BoldMT-53" d="M 231 1491
L 1131 1578
Q 1213 1125 1461 912
Q 1709 700 2131 700
Q 2578 700 2804 889
Q 3031 1078 3031 1331
Q 3031 1494 2936 1608
Q 2841 1722 2603 1806
Q 2441 1863 1863 2006
Q 1119 2191 819 2459
Q 397 2838 397 3381
Q 397 3731 595 4036
Q 794 4341 1167 4500
Q 1541 4659 2069 4659
Q 2931 4659 3367 4281
Q 3803 3903 3825 3272
L 2900 3231
Q 2841 3584 2645 3739
Q 2450 3894 2059 3894
Q 1656 3894 1428 3728
Q 1281 3622 1281 3444
Q 1281 3281 1419 3166
Q 1594 3019 2269 2859
Q 2944 2700 3267 2529
Q 3591 2359 3773 2064
Q 3956 1769 3956 1334
Q 3956 941 3737 597
Q 3519 253 3119 86
Q 2719 -81 2122 -81
Q 1253 -81 787 320
Q 322 722 231 1491
z
" transform="scale(0.015625)"/>
       <path id="Arial-BoldMT-75" d="M 2644 0
L 2644 497
Q 2463 231 2167 78
Q 1872 -75 1544 -75
Q 1209 -75 943 72
Q 678 219 559 484
Q 441 750 441 1219
L 441 3319
L 1319 3319
L 1319 1794
Q 1319 1094 1367 936
Q 1416 778 1544 686
Q 1672 594 1869 594
Q 2094 594 2272 717
Q 2450 841 2515 1023
Q 2581 1206 2581 1919
L 2581 3319
L 3459 3319
L 3459 0
L 2644 0
z
" transform="scale(0.015625)"/>
       <path id="Arial-BoldMT-62" d="M 422 0
L 422 4581
L 1300 4581
L 1300 2931
Q 1706 3394 2263 3394
Q 2869 3394 3266 2955
Q 3663 2516 3663 1694
Q 3663 844 3258 384
Q 2853 -75 2275 -75
Q 1991 -75 1714 67
Q 1438 209 1238 488
L 1238 0
L 422 0
z
M 1294 1731
Q 1294 1216 1456 969
Q 1684 619 2063 619
Q 2353 619 2558 867
Q 2763 1116 2763 1650
Q 2763 2219 2556 2470
Q 2350 2722 2028 2722
Q 1713 2722 1503 2476
Q 1294 2231 1294 1731
z
" transform="scale(0.015625)"/>
       <path id="Arial-BoldMT-6d" d="M 394 3319
L 1203 3319
L 1203 2866
Q 1638 3394 2238 3394
Q 2556 3394 2790 3262
Q 3025 3131 3175 2866
Q 3394 3131 3647 3262
Q 3900 3394 4188 3394
Q 4553 3394 4806 3245
Q 5059 3097 5184 2809
Q 5275 2597 5275 2122
L 5275 0
L 4397 0
L 4397 1897
Q 4397 2391 4306 2534
Q 4184 2722 3931 2722
Q 3747 2722 3584 2609
Q 3422 2497 3350 2280
Q 3278 2063 3278 1594
L 3278 0
L 2400 0
L 2400 1819
Q 2400 2303 2353 2443
Q 2306 2584 2207 2653
Q 2109 2722 1941 2722
Q 1738 2722 1575 2612
Q 1413 2503 1342 2297
Q 1272 2091 1272 1613
L 1272 0
L 394 0
L 394 3319
z
" transform="scale(0.015625)"/>
       <path id="Arial-BoldMT-69" d="M 459 3769
L 459 4581
L 1338 4581
L 1338 3769
L 459 3769
z
M 459 0
L 459 3319
L 1338 3319
L 1338 0
L 459 0
z
" transform="scale(0.015625)"/>
       <path id="Arial-BoldMT-73" d="M 150 947
L 1031 1081
Q 1088 825 1259 692
Q 1431 559 1741 559
Q 2081 559 2253 684
Q 2369 772 2369 919
Q 2369 1019 2306 1084
Q 2241 1147 2013 1200
Q 950 1434 666 1628
Q 272 1897 272 2375
Q 272 2806 612 3100
Q 953 3394 1669 3394
Q 2350 3394 2681 3172
Q 3013 2950 3138 2516
L 2309 2363
Q 2256 2556 2107 2659
Q 1959 2763 1684 2763
Q 1338 2763 1188 2666
Q 1088 2597 1088 2488
Q 1088 2394 1175 2328
Q 1294 2241 1995 2081
Q 2697 1922 2975 1691
Q 3250 1456 3250 1038
Q 3250 581 2869 253
Q 2488 -75 1741 -75
Q 1063 -75 667 200
Q 272 475 150 947
z
" transform="scale(0.015625)"/>
      </defs>
      <use xlink:href="#Arial-BoldMT-4d"/>
      <use xlink:href="#Arial-BoldMT-6f" transform="translate(83.300781 0)"/>
      <use xlink:href="#Arial-BoldMT-6e" transform="translate(144.384766 0)"/>
      <use xlink:href="#Arial-BoldMT-74" transform="translate(205.46875 0)"/>
      <use xlink:href="#Arial-BoldMT-68" transform="translate(238.769531 0)"/>
      <use xlink:href="#Arial-BoldMT-6c" transform="translate(299.853516 0)"/>
      <use xlink:href="#Arial-BoldMT-79" transform="translate(327.636719 0)"/>
      <use xlink:href="#Arial-BoldMT-20" transform="translate(383.251953 0)"/>
      <use xlink:href="#Arial-BoldMT-53" transform="translate(411.035156 0)"/>
      <use xlink:href="#Arial-BoldMT-75" transform="translate(477.734375 0)"/>
      <use xlink:href="#Arial-BoldMT-62" transform="translate(538.818359 0)"/>
      <use xlink:href="#Arial-BoldMT-6d" transform="translate(599.902344 0)"/>
      <use xlink:href="#Arial-BoldMT-69" transform="translate(688.818359 0)"/>
      <use xlink:href="#Arial-BoldMT-73" transform="translate(716.601562 0)"/>
      <use xlink:href="#Arial-BoldMT-73" transform="translate(772.216797 0)"/>
      <use xlink:href="#Arial-BoldMT-69" transform="translate(827.832031 0)"/>
      <use xlink:href="#Arial-BoldMT-6f" transform="translate(855.615234 0)"/>
      <use xlink:href="#Arial-BoldMT-6e" transform="translate(916.699219 0)"/>
      <use xlink:href="#Arial-BoldMT-73" transform="translate(977.783203 0)"/>
     </g>
    </g>
   </g>
   <g id="FillBetweenPolyCollection_1">
    <defs>
     <path id="m39ca932f64" d="M 44.672528 -29.634375
L 44.672528 -29.651778
L 45.134393 -29.878017
L 45.596257 -30.139063
L 46.043222 -30.29569
L 46.505087 -30.191272
L 46.952052 -30.313093
L 47.413916 -31.313767
L 47.875781 -30.800377
L 48.307847 -30.678556
L 48.769711 -31.592215
L 49.216677 -31.696633
L 49.678541 -31.696633
L 50.125506 -32.210022
L 50.587371 -31.609618
L 51.049235 -32.558083
L 51.4962 -33.123681
L 51.958065 -33.576159
L 52.40503 -33.149785
L 52.866894 -33.114979
L 53.328759 -33.358622
L 53.745926 -34.019937
L 54.207791 -34.028638
L 54.654756 -34.315788
L 55.11662 -34.298385
L 55.563586 -35.229447
L 56.02545 -34.341892
L 56.487314 -34.141758
L 56.93428 -35.533999
L 57.396144 -35.847254
L 57.843109 -36.05609
L 58.304974 -34.942297
L 58.766838 -35.316462
L 59.184006 -36.186613
L 59.64587 -36.05609
L 60.092835 -36.952346
L 60.5547 -37.361317
L 61.001665 -37.143779
L 61.463529 -36.299732
L 61.925393 -37.326511
L 62.372359 -37.744183
L 62.834223 -39.327858
L 63.281189 -38.814469
L 63.743053 -37.752885
L 64.204917 -38.135751
L 64.622085 -39.79774
L 65.083949 -37.578855
L 65.530915 -39.293052
L 65.992779 -40.032681
L 66.439744 -38.483812
L 66.901608 -38.596931
L 67.363473 -39.493187
L 67.810438 -40.328532
L 68.272302 -39.745531
L 68.719268 -39.615008
L 69.181132 -38.779663
L 69.642996 -38.997201
L 70.075063 -39.806441
L 70.536927 -40.250218
L 70.983893 -41.451027
L 71.445757 -41.042056
L 71.892722 -42.025327
L 72.354587 -41.764281
L 72.816451 -42.460402
L 73.263416 -42.860672
L 73.72528 -41.833893
L 74.172246 -42.399492
L 74.63411 -41.015951
L 75.095974 -41.485833
L 75.513142 -41.912207
L 75.975006 -42.408193
L 76.421972 -43.391464
L 76.883836 -44.505257
L 77.330802 -45.331901
L 77.792666 -42.04273
L 78.25453 -46.010619
L 78.701495 -47.098308
L 79.16336 -44.574869
L 79.610325 -46.59362
L 80.072189 -44.627078
L 80.534054 -44.148495
L 80.951221 -46.262963
L 81.413086 -44.835915
L 81.860051 -46.323873
L 82.321915 -47.811831
L 82.768881 -47.91625
L 83.230745 -45.523334
L 83.692609 -50.639823
L 84.139575 -49.908896
L 84.601439 -49.143163
L 85.048404 -48.803804
L 85.510269 -45.73217
L 85.972133 -46.332575
L 86.389301 -50.465792
L 86.851165 -48.394833
L 87.29813 -48.960431
L 87.759995 -50.752942
L 88.20696 -50.639823
L 88.668824 -48.246907
L 89.130689 -51.405556
L 89.577654 -52.00596
L 90.039518 -51.54478
L 90.486484 -52.197393
L 90.948348 -50.213448
L 91.410212 -50.22215
L 91.842279 -52.258304
L 92.304143 -47.707413
L 92.751108 -53.363395
L 93.212973 -50.85736
L 93.659938 -51.048794
L 94.121802 -52.371423
L 94.583667 -51.579586
L 95.030632 -54.981877
L 95.492496 -54.555502
L 95.939462 -52.728185
L 96.401326 -52.17999
L 96.86319 -50.770345
L 97.280358 -53.241574
L 97.742222 -52.310513
L 98.189188 -54.973175
L 98.651052 -54.616413
L 99.098017 -53.650545
L 99.559882 -50.709435
L 100.021746 -51.805825
L 100.468711 -59.254318
L 100.930576 -57.827271
L 101.377541 -53.285082
L 101.839405 -53.267679
L 102.301269 -51.971154
L 102.718437 -52.832603
L 103.180301 -54.459786
L 103.627267 -56.513342
L 104.089131 -53.084947
L 104.536097 -58.079614
L 104.997961 -53.345992
L 105.459825 -58.471182
L 105.90679 -60.35941
L 106.368655 -59.567573
L 106.81562 -57.966495
L 107.277484 -55.094996
L 107.739349 -54.703428
L 108.156516 -55.895535
L 108.618381 -56.626462
L 109.065346 -58.062211
L 109.52721 -59.767708
L 109.974176 -59.37614
L 110.43604 -53.485217
L 110.897904 -62.238937
L 111.34487 -63.056879
L 111.806734 -58.775735
L 112.253699 -61.490607
L 112.715564 -56.356715
L 113.177428 -58.149227
L 113.609494 -60.985919
L 114.071359 -58.949766
L 114.518324 -60.550844
L 114.980188 -61.916981
L 115.427154 -61.647234
L 115.889018 -58.297152
L 116.350882 -63.909627
L 116.797848 -65.188749
L 117.259712 -65.763049
L 117.706677 -64.38821
L 118.168542 -60.028753
L 118.630406 -57.914286
L 119.047574 -63.404939
L 119.509438 -61.769055
L 119.956403 -62.517385
L 120.418268 -64.301195
L 120.865233 -63.039476
L 121.327097 -62.482579
L 121.788962 -67.44244
L 122.235927 -68.260382
L 122.697791 -66.998663
L 123.144757 -65.162644
L 123.606621 -63.204804
L 124.068485 -60.263694
L 124.485653 -66.293841
L 124.947517 -59.863424
L 125.394483 -66.215527
L 125.856347 -65.649929
L 126.303312 -66.154617
L 126.765177 -64.997316
L 127.227041 -66.833334
L 127.674006 -74.299231
L 128.135871 -71.871509
L 128.582836 -67.016066
L 129.0447 -70.122506
L 129.506564 -65.867467
L 129.923732 -68.730264
L 130.385596 -64.466524
L 130.832562 -70.392252
L 131.294426 -68.65195
L 131.741392 -70.366148
L 132.203256 -68.042845
L 132.66512 -70.374849
L 133.112085 -81.364858
L 133.57395 -73.394274
L 134.020915 -67.973232
L 134.482779 -72.880885
L 134.944644 -68.469219
L 135.37671 -68.956503
L 135.838575 -72.254376
L 136.28554 -71.714882
L 136.747404 -72.9679
L 137.19437 -74.35144
L 137.656234 -65.832661
L 138.118098 -75.639264
L 138.565064 -79.868198
L 139.026928 -71.175388
L 139.473893 -74.151305
L 139.935758 -72.924392
L 140.397622 -72.297883
L 140.81479 -77.901656
L 141.276654 -72.532824
L 141.723619 -72.750362
L 142.185483 -78.484658
L 142.632449 -78.415046
L 143.094313 -69.635221
L 143.556177 -79.198182
L 144.003143 -81.469276
L 144.465007 -79.494033
L 144.911972 -77.814641
L 145.373837 -77.240342
L 145.835701 -73.559602
L 146.252869 -83.000742
L 146.714733 -78.38024
L 147.161698 -79.554944
L 147.623563 -81.521485
L 148.070528 -77.675417
L 148.532392 -76.613833
L 148.994257 -83.862192
L 149.441222 -84.4887
L 149.903086 -87.725662
L 150.350052 -82.235009
L 150.811916 -82.548263
L 151.27378 -79.876899
L 151.690948 -84.332073
L 152.152812 -79.328704
L 152.599778 -85.097806
L 153.061642 -84.94988
L 153.508607 -82.24371
L 153.970472 -84.723641
L 154.432336 -89.996757
L 154.879301 -89.935846
L 155.341166 -93.320734
L 155.788131 -85.602494
L 156.249995 -87.821379
L 156.711859 -87.803976
L 157.143926 -89.700905
L 157.60579 -88.273858
L 158.052756 -91.345491
L 158.51462 -91.597835
L 158.961585 -93.660093
L 159.42345 -86.994735
L 159.885314 -87.325393
L 160.332279 -103.179546
L 160.794144 -93.764511
L 161.241109 -90.318713
L 161.702973 -97.071085
L 162.164838 -93.303331
L 162.582005 -94.686871
L 163.04387 -100.421167
L 163.490835 -95.034932
L 163.952699 -90.057667
L 164.399665 -103.136038
L 164.861529 -89.0918
L 165.323393 -99.202955
L 165.770359 -104.972057
L 166.232223 -96.566398
L 166.679188 -98.184879
L 167.141053 -101.804707
L 167.602917 -93.799317
L 168.020085 -100.586496
L 168.481949 -97.984744
L 168.928914 -99.028925
L 169.390778 -98.150073
L 169.837744 -104.023592
L 170.299608 -91.580432
L 170.761472 -105.128684
L 171.208438 -106.825479
L 171.670302 -99.298672
L 172.117268 -105.946626
L 172.579132 -98.48073
L 173.040996 -99.716345
L 173.458164 -109.609963
L 173.920028 -102.439917
L 174.366993 -100.743123
L 174.828858 -109.836202
L 175.275823 -107.904466
L 175.737687 -99.098537
L 176.199552 -110.715054
L 176.646517 -109.888411
L 177.108381 -112.055087
L 177.555347 -111.219742
L 178.017211 -101.430542
L 178.479075 -109.183588
L 178.911142 -114.439301
L 179.373006 -107.495495
L 179.819972 -114.839571
L 180.281836 -113.551747
L 180.728801 -107.173539
L 181.190665 -108.087198
L 181.65253 -115.509587
L 182.099495 -117.519636
L 182.561359 -119.799432
L 183.008325 -113.160179
L 183.470189 -109.566455
L 183.932053 -107.164838
L 184.349221 -125.420608
L 184.811085 -108.200318
L 185.258051 -127.039089
L 185.719915 -119.233834
L 186.16688 -116.475455
L 186.628745 -115.379064
L 187.090609 -121.148166
L 187.537574 -130.806843
L 187.999439 -130.476186
L 188.446404 -119.538387
L 188.908268 -121.948705
L 189.370133 -121.809481
L 189.7873 -130.223842
L 190.249165 -128.413928
L 190.69613 -139.229906
L 191.157994 -130.293454
L 191.60496 -133.513013
L 192.066824 -124.219799
L 192.528688 -126.838954
L 192.975654 -146.634892
L 193.437518 -142.240629
L 193.884483 -133.817566
L 194.346348 -130.023707
L 194.808212 -127.978852
L 195.22538 -139.743295
L 195.687244 -146.199816
L 196.134209 -149.280151
L 196.596073 -137.098036
L 197.043039 -148.270776
L 197.504903 -132.903907
L 197.966767 -150.420049
L 198.413733 -157.329049
L 198.875597 -145.381874
L 199.322563 -147.252699
L 199.784427 -134.139522
L 200.246291 -142.162315
L 200.678358 -155.066656
L 201.140222 -160.374578
L 201.587187 -157.711915
L 202.049052 -177.560062
L 202.496017 -170.668465
L 202.957881 -149.549898
L 203.419746 -158.651678
L 203.866711 -172.495782
L 204.328575 -161.288236
L 204.775541 -167.675145
L 205.237405 -140.552536
L 205.699269 -148.462209
L 206.116437 -179.935574
L 206.578301 -161.383953
L 207.025267 -161.94085
L 207.487131 -171.016526
L 207.934096 -158.442842
L 208.39596 -151.507738
L 208.857825 -162.958926
L 209.30479 -168.51049
L 209.766654 -166.013157
L 210.21362 -165.34314
L 210.675484 -146.687101
L 211.137348 -151.786186
L 211.554516 -179.961679
L 212.01638 -153.839743
L 212.463346 -168.928163
L 212.92521 -164.316362
L 213.372175 -158.538559
L 213.83404 -160.183144
L 214.295904 -165.726007
L 214.742869 -182.354594
L 215.204734 -179.918171
L 215.651699 -159.173769
L 216.113563 -150.324332
L 216.575428 -158.964933
L 216.992595 -188.428249
L 217.45446 -160.244055
L 217.901425 -204.465134
L 218.363289 -184.938943
L 218.810255 -176.663806
L 219.272119 -176.794329
L 219.733983 -181.501846
L 220.180949 -209.842668
L 220.642813 -193.579544
L 221.089778 -184.068792
L 221.551643 -187.001201
L 222.013507 -199.148511
L 222.445573 -206.553497
L 222.907438 -201.584934
L 223.354403 -213.027421
L 223.816267 -204.526044
L 224.263233 -219.275106
L 224.725097 -181.484443
L 225.186961 -208.615755
L 225.633927 -240.43718
L 226.095791 -203.238221
L 226.542756 -214.158617
L 227.004621 -198.504599
L 227.466485 -215.159291
L 227.883653 -241.87293
L 228.345517 -219.823301
L 228.792482 -246.110565
L 229.254347 -116.632082
L 229.254347 -29.634375
L 229.254347 -29.634375
L 228.792482 -29.634375
L 228.345517 -29.634375
L 227.883653 -29.634375
L 227.466485 -29.634375
L 227.004621 -29.634375
L 226.542756 -29.634375
L 226.095791 -29.634375
L 225.633927 -29.634375
L 225.186961 -29.634375
L 224.725097 -29.634375
L 224.263233 -29.634375
L 223.816267 -29.634375
L 223.354403 -29.634375
L 222.907438 -29.634375
L 222.445573 -29.634375
L 222.013507 -29.634375
L 221.551643 -29.634375
L 221.089778 -29.634375
L 220.642813 -29.634375
L 220.180949 -29.634375
L 219.733983 -29.634375
L 219.272119 -29.634375
L 218.810255 -29.634375
L 218.363289 -29.634375
L 217.901425 -29.634375
L 217.45446 -29.634375
L 216.992595 -29.634375
L 216.575428 -29.634375
L 216.113563 -29.634375
L 215.651699 -29.634375
L 215.204734 -29.634375
L 214.742869 -29.634375
L 214.295904 -29.634375
L 213.83404 -29.634375
L 213.372175 -29.634375
L 212.92521 -29.634375
L 212.463346 -29.634375
L 212.01638 -29.634375
L 211.554516 -29.634375
L 211.137348 -29.634375
L 210.675484 -29.634375
L 210.21362 -29.634375
L 209.766654 -29.634375
L 209.30479 -29.634375
L 208.857825 -29.634375
L 208.39596 -29.634375
L 207.934096 -29.634375
L 207.487131 -29.634375
L 207.025267 -29.634375
L 206.578301 -29.634375
L 206.116437 -29.634375
L 205.699269 -29.634375
L 205.237405 -29.634375
L 204.775541 -29.634375
L 204.328575 -29.634375
L 203.866711 -29.634375
L 203.419746 -29.634375
L 202.957881 -29.634375
L 202.496017 -29.634375
L 202.049052 -29.634375
L 201.587187 -29.634375
L 201.140222 -29.634375
L 200.678358 -29.634375
L 200.246291 -29.634375
L 199.784427 -29.634375
L 199.322563 -29.634375
L 198.875597 -29.634375
L 198.413733 -29.634375
L 197.966767 -29.634375
L 197.504903 -29.634375
L 197.043039 -29.634375
L 196.596073 -29.634375
L 196.134209 -29.634375
L 195.687244 -29.634375
L 195.22538 -29.634375
L 194.808212 -29.634375
L 194.346348 -29.634375
L 193.884483 -29.634375
L 193.437518 -29.634375
L 192.975654 -29.634375
L 192.528688 -29.634375
L 192.066824 -29.634375
L 191.60496 -29.634375
L 191.157994 -29.634375
L 190.69613 -29.634375
L 190.249165 -29.634375
L 189.7873 -29.634375
L 189.370133 -29.634375
L 188.908268 -29.634375
L 188.446404 -29.634375
L 187.999439 -29.634375
L 187.537574 -29.634375
L 187.090609 -29.634375
L 186.628745 -29.634375
L 186.16688 -29.634375
L 185.719915 -29.634375
L 185.258051 -29.634375
L 184.811085 -29.634375
L 184.349221 -29.634375
L 183.932053 -29.634375
L 183.470189 -29.634375
L 183.008325 -29.634375
L 182.561359 -29.634375
L 182.099495 -29.634375
L 181.65253 -29.634375
L 181.190665 -29.634375
L 180.728801 -29.634375
L 180.281836 -29.634375
L 179.819972 -29.634375
L 179.373006 -29.634375
L 178.911142 -29.634375
L 178.479075 -29.634375
L 178.017211 -29.634375
L 177.555347 -29.634375
L 177.108381 -29.634375
L 176.646517 -29.634375
L 176.199552 -29.634375
L 175.737687 -29.634375
L 175.275823 -29.634375
L 174.828858 -29.634375
L 174.366993 -29.634375
L 173.920028 -29.634375
L 173.458164 -29.634375
L 173.040996 -29.634375
L 172.579132 -29.634375
L 172.117268 -29.634375
L 171.670302 -29.634375
L 171.208438 -29.634375
L 170.761472 -29.634375
L 170.299608 -29.634375
L 169.837744 -29.634375
L 169.390778 -29.634375
L 168.928914 -29.634375
L 168.481949 -29.634375
L 168.020085 -29.634375
L 167.602917 -29.634375
L 167.141053 -29.634375
L 166.679188 -29.634375
L 166.232223 -29.634375
L 165.770359 -29.634375
L 165.323393 -29.634375
L 164.861529 -29.634375
L 164.399665 -29.634375
L 163.952699 -29.634375
L 163.490835 -29.634375
L 163.04387 -29.634375
L 162.582005 -29.634375
L 162.164838 -29.634375
L 161.702973 -29.634375
L 161.241109 -29.634375
L 160.794144 -29.634375
L 160.332279 -29.634375
L 159.885314 -29.634375
L 159.42345 -29.634375
L 158.961585 -29.634375
L 158.51462 -29.634375
L 158.052756 -29.634375
L 157.60579 -29.634375
L 157.143926 -29.634375
L 156.711859 -29.634375
L 156.249995 -29.634375
L 155.788131 -29.634375
L 155.341166 -29.634375
L 154.879301 -29.634375
L 154.432336 -29.634375
L 153.970472 -29.634375
L 153.508607 -29.634375
L 153.061642 -29.634375
L 152.599778 -29.634375
L 152.152812 -29.634375
L 151.690948 -29.634375
L 151.27378 -29.634375
L 150.811916 -29.634375
L 150.350052 -29.634375
L 149.903086 -29.634375
L 149.441222 -29.634375
L 148.994257 -29.634375
L 148.532392 -29.634375
L 148.070528 -29.634375
L 147.623563 -29.634375
L 147.161698 -29.634375
L 146.714733 -29.634375
L 146.252869 -29.634375
L 145.835701 -29.634375
L 145.373837 -29.634375
L 144.911972 -29.634375
L 144.465007 -29.634375
L 144.003143 -29.634375
L 143.556177 -29.634375
L 143.094313 -29.634375
L 142.632449 -29.634375
L 142.185483 -29.634375
L 141.723619 -29.634375
L 141.276654 -29.634375
L 140.81479 -29.634375
L 140.397622 -29.634375
L 139.935758 -29.634375
L 139.473893 -29.634375
L 139.026928 -29.634375
L 138.565064 -29.634375
L 138.118098 -29.634375
L 137.656234 -29.634375
L 137.19437 -29.634375
L 136.747404 -29.634375
L 136.28554 -29.634375
L 135.838575 -29.634375
L 135.37671 -29.634375
L 134.944644 -29.634375
L 134.482779 -29.634375
L 134.020915 -29.634375
L 133.57395 -29.634375
L 133.112085 -29.634375
L 132.66512 -29.634375
L 132.203256 -29.634375
L 131.741392 -29.634375
L 131.294426 -29.634375
L 130.832562 -29.634375
L 130.385596 -29.634375
L 129.923732 -29.634375
L 129.506564 -29.634375
L 129.0447 -29.634375
L 128.582836 -29.634375
L 128.135871 -29.634375
L 127.674006 -29.634375
L 127.227041 -29.634375
L 126.765177 -29.634375
L 126.303312 -29.634375
L 125.856347 -29.634375
L 125.394483 -29.634375
L 124.947517 -29.634375
L 124.485653 -29.634375
L 124.068485 -29.634375
L 123.606621 -29.634375
L 123.144757 -29.634375
L 122.697791 -29.634375
L 122.235927 -29.634375
L 121.788962 -29.634375
L 121.327097 -29.634375
L 120.865233 -29.634375
L 120.418268 -29.634375
L 119.956403 -29.634375
L 119.509438 -29.634375
L 119.047574 -29.634375
L 118.630406 -29.634375
L 118.168542 -29.634375
L 117.706677 -29.634375
L 117.259712 -29.634375
L 116.797848 -29.634375
L 116.350882 -29.634375
L 115.889018 -29.634375
L 115.427154 -29.634375
L 114.980188 -29.634375
L 114.518324 -29.634375
L 114.071359 -29.634375
L 113.609494 -29.634375
L 113.177428 -29.634375
L 112.715564 -29.634375
L 112.253699 -29.634375
L 111.806734 -29.634375
L 111.34487 -29.634375
L 110.897904 -29.634375
L 110.43604 -29.634375
L 109.974176 -29.634375
L 109.52721 -29.634375
L 109.065346 -29.634375
L 108.618381 -29.634375
L 108.156516 -29.634375
L 107.739349 -29.634375
L 107.277484 -29.634375
L 106.81562 -29.634375
L 106.368655 -29.634375
L 105.90679 -29.634375
L 105.459825 -29.634375
L 104.997961 -29.634375
L 104.536097 -29.634375
L 104.089131 -29.634375
L 103.627267 -29.634375
L 103.180301 -29.634375
L 102.718437 -29.634375
L 102.301269 -29.634375
L 101.839405 -29.634375
L 101.377541 -29.634375
L 100.930576 -29.634375
L 100.468711 -29.634375
L 100.021746 -29.634375
L 99.559882 -29.634375
L 99.098017 -29.634375
L 98.651052 -29.634375
L 98.189188 -29.634375
L 97.742222 -29.634375
L 97.280358 -29.634375
L 96.86319 -29.634375
L 96.401326 -29.634375
L 95.939462 -29.634375
L 95.492496 -29.634375
L 95.030632 -29.634375
L 94.583667 -29.634375
L 94.121802 -29.634375
L 93.659938 -29.634375
L 93.212973 -29.634375
L 92.751108 -29.634375
L 92.304143 -29.634375
L 91.842279 -29.634375
L 91.410212 -29.634375
L 90.948348 -29.634375
L 90.486484 -29.634375
L 90.039518 -29.634375
L 89.577654 -29.634375
L 89.130689 -29.634375
L 88.668824 -29.634375
L 88.20696 -29.634375
L 87.759995 -29.634375
L 87.29813 -29.634375
L 86.851165 -29.634375
L 86.389301 -29.634375
L 85.972133 -29.634375
L 85.510269 -29.634375
L 85.048404 -29.634375
L 84.601439 -29.634375
L 84.139575 -29.634375
L 83.692609 -29.634375
L 83.230745 -29.634375
L 82.768881 -29.634375
L 82.321915 -29.634375
L 81.860051 -29.634375
L 81.413086 -29.634375
L 80.951221 -29.634375
L 80.534054 -29.634375
L 80.072189 -29.634375
L 79.610325 -29.634375
L 79.16336 -29.634375
L 78.701495 -29.634375
L 78.25453 -29.634375
L 77.792666 -29.634375
L 77.330802 -29.634375
L 76.883836 -29.634375
L 76.421972 -29.634375
L 75.975006 -29.634375
L 75.513142 -29.634375
L 75.095974 -29.634375
L 74.63411 -29.634375
L 74.172246 -29.634375
L 73.72528 -29.634375
L 73.263416 -29.634375
L 72.816451 -29.634375
L 72.354587 -29.634375
L 71.892722 -29.634375
L 71.445757 -29.634375
L 70.983893 -29.634375
L 70.536927 -29.634375
L 70.075063 -29.634375
L 69.642996 -29.634375
L 69.181132 -29.634375
L 68.719268 -29.634375
L 68.272302 -29.634375
L 67.810438 -29.634375
L 67.363473 -29.634375
L 66.901608 -29.634375
L 66.439744 -29.634375
L 65.992779 -29.634375
L 65.530915 -29.634375
L 65.083949 -29.634375
L 64.622085 -29.634375
L 64.204917 -29.634375
L 63.743053 -29.634375
L 63.281189 -29.634375
L 62.834223 -29.634375
L 62.372359 -29.634375
L 61.925393 -29.634375
L 61.463529 -29.634375
L 61.001665 -29.634375
L 60.5547 -29.634375
L 60.092835 -29.634375
L 59.64587 -29.634375
L 59.184006 -29.634375
L 58.766838 -29.634375
L 58.304974 -29.634375
L 57.843109 -29.634375
L 57.396144 -29.634375
L 56.93428 -29.634375
L 56.487314 -29.634375
L 56.02545 -29.634375
L 55.563586 -29.634375
L 55.11662 -29.634375
L 54.654756 -29.634375
L 54.207791 -29.634375
L 53.745926 -29.634375
L 53.328759 -29.634375
L 52.866894 -29.634375
L 52.40503 -29.634375
L 51.958065 -29.634375
L 51.4962 -29.634375
L 51.049235 -29.634375
L 50.587371 -29.634375
L 50.125506 -29.634375
L 49.678541 -29.634375
L 49.216677 -29.634375
L 48.769711 -29.634375
L 48.307847 -29.634375
L 47.875781 -29.634375
L 47.413916 -29.634375
L 46.952052 -29.634375
L 46.505087 -29.634375
L 46.043222 -29.634375
L 45.596257 -29.634375
L 45.134393 -29.634375
L 44.672528 -29.634375
z
" style="stroke: #2e86ab; stroke-opacity: 0.2"/>
    </defs>
    <g clip-path="url(#pf9a82ac8f4)">
     <use xlink:href="#m39ca932f64" x="0" y="277.814063" style="fill: #2e86ab; fill-opacity: 0.2; stroke: #2e86ab; stroke-opacity: 0.2"/>
    </g>
   </g>
   <g id="line2d_25">
    <path d="M 44.672528 248.162284
L 46.043222 247.518373
L 46.505087 247.622791
L 46.952052 247.50097
L 47.413916 246.500296
L 47.875781 247.013685
L 48.307847 247.135506
L 48.769711 246.221848
L 49.678541 246.117429
L 50.125506 245.60404
L 50.587371 246.204445
L 51.049235 245.25598
L 51.958065 244.237903
L 52.40503 244.664277
L 52.866894 244.699083
L 53.328759 244.455441
L 53.745926 243.794126
L 54.207791 243.785424
L 54.654756 243.498275
L 55.11662 243.515678
L 55.563586 242.584616
L 56.02545 243.47217
L 56.487314 243.672305
L 56.93428 242.280063
L 57.843109 241.757972
L 58.304974 242.871766
L 58.766838 242.497601
L 59.184006 241.62745
L 59.64587 241.757972
L 60.092835 240.861717
L 60.5547 240.452746
L 61.001665 240.670284
L 61.463529 241.51433
L 61.925393 240.487552
L 62.372359 240.069879
L 62.834223 238.486204
L 63.281189 238.999593
L 63.743053 240.061178
L 64.204917 239.678311
L 64.622085 238.016323
L 65.083949 240.235208
L 65.530915 238.52101
L 65.992779 237.781382
L 66.439744 239.330251
L 66.901608 239.217131
L 67.810438 237.48553
L 68.272302 238.068532
L 68.719268 238.199054
L 69.181132 239.034399
L 69.642996 238.816862
L 70.075063 238.007621
L 70.536927 237.563844
L 70.983893 236.363036
L 71.445757 236.772007
L 71.892722 235.788736
L 72.354587 236.049781
L 72.816451 235.35366
L 73.263416 234.953391
L 73.72528 235.980169
L 74.172246 235.414571
L 74.63411 236.798111
L 75.975006 235.405869
L 77.330802 232.482162
L 77.792666 235.771333
L 78.25453 231.803444
L 78.701495 230.715755
L 79.16336 233.239193
L 79.610325 231.220443
L 80.072189 233.186984
L 80.534054 233.665567
L 80.951221 231.5511
L 81.413086 232.978148
L 82.321915 230.002231
L 82.768881 229.897813
L 83.230745 232.290728
L 83.692609 227.17424
L 84.601439 228.6709
L 85.048404 229.010259
L 85.510269 232.081892
L 85.972133 231.481488
L 86.389301 227.34827
L 86.851165 229.41923
L 87.29813 228.853632
L 87.759995 227.06112
L 88.20696 227.17424
L 88.668824 229.567155
L 89.130689 226.408507
L 89.577654 225.808103
L 90.039518 226.269283
L 90.486484 225.616669
L 90.948348 227.600614
L 91.410212 227.591912
L 91.842279 225.555759
L 92.304143 230.106649
L 92.751108 224.450667
L 93.212973 226.956702
L 93.659938 226.765269
L 94.121802 225.442639
L 94.583667 226.234477
L 95.030632 222.832186
L 95.492496 223.25856
L 95.939462 225.085877
L 96.401326 225.634073
L 96.86319 227.043717
L 97.280358 224.572488
L 97.742222 225.50355
L 98.189188 222.840887
L 98.651052 223.197649
L 99.098017 224.163517
L 99.559882 227.104628
L 100.021746 226.008237
L 100.468711 218.559744
L 100.930576 219.986792
L 101.377541 224.528981
L 101.839405 224.546384
L 102.301269 225.842909
L 102.718437 224.981459
L 103.180301 223.354277
L 103.627267 221.30072
L 104.089131 224.729115
L 104.536097 219.734448
L 104.997961 224.46807
L 105.459825 219.34288
L 105.90679 217.454652
L 106.368655 218.24649
L 106.81562 219.847568
L 107.277484 222.719066
L 107.739349 223.110634
L 108.156516 221.918527
L 108.618381 221.1876
L 109.52721 218.046355
L 109.974176 218.437923
L 110.43604 224.328846
L 110.897904 215.575126
L 111.34487 214.757184
L 111.806734 219.038327
L 112.253699 216.323456
L 112.715564 221.457347
L 113.177428 219.664836
L 113.609494 216.828143
L 114.071359 218.864297
L 114.980188 215.897082
L 115.427154 216.166829
L 115.889018 219.51691
L 116.350882 213.904436
L 116.797848 212.625314
L 117.259712 212.051014
L 117.706677 213.425853
L 118.168542 217.78531
L 118.630406 219.899777
L 119.047574 214.409123
L 119.509438 216.045007
L 119.956403 215.296677
L 120.418268 213.512868
L 120.865233 214.774587
L 121.327097 215.331484
L 121.788962 210.371622
L 122.235927 209.55368
L 122.697791 210.815399
L 123.606621 214.609258
L 124.068485 217.550369
L 124.485653 211.520222
L 124.947517 217.950638
L 125.394483 211.598535
L 125.856347 212.164134
L 126.303312 211.659446
L 126.765177 212.816747
L 127.227041 210.980728
L 127.674006 203.514832
L 128.135871 205.942553
L 128.582836 210.797996
L 129.0447 207.691557
L 129.506564 211.946596
L 129.923732 209.083799
L 130.385596 213.347539
L 130.832562 207.42181
L 131.294426 209.162112
L 131.741392 207.447915
L 132.203256 209.771218
L 132.66512 207.439213
L 133.112085 196.449205
L 133.57395 204.419789
L 134.020915 209.84083
L 134.482779 204.933178
L 134.944644 209.344844
L 135.37671 208.857559
L 135.838575 205.559687
L 136.28554 206.09918
L 137.19437 203.462623
L 137.656234 211.981402
L 138.118098 202.174799
L 138.565064 197.945865
L 139.026928 206.638674
L 139.473893 203.662757
L 139.935758 204.88967
L 140.397622 205.516179
L 140.81479 199.912406
L 141.276654 205.281238
L 141.723619 205.063701
L 142.185483 199.329405
L 142.632449 199.399017
L 143.094313 208.178841
L 143.556177 198.615881
L 144.003143 196.344787
L 144.911972 199.999421
L 145.373837 200.573721
L 145.835701 204.25446
L 146.252869 194.813321
L 146.714733 199.433823
L 147.161698 198.259119
L 147.623563 196.292577
L 148.070528 200.138645
L 148.532392 201.20023
L 148.994257 193.951871
L 149.441222 193.325362
L 149.903086 190.0884
L 150.350052 195.579054
L 150.811916 195.265799
L 151.27378 197.937163
L 151.690948 193.481989
L 152.152812 198.485358
L 152.599778 192.716256
L 153.061642 192.864182
L 153.508607 195.570352
L 153.970472 193.090421
L 154.432336 187.817306
L 154.879301 187.878216
L 155.341166 184.493329
L 155.788131 192.211569
L 156.249995 189.992683
L 156.711859 190.010087
L 157.143926 188.113157
L 157.60579 189.540205
L 158.052756 186.468572
L 158.51462 186.216228
L 158.961585 184.15397
L 159.42345 190.819327
L 159.885314 190.48867
L 160.332279 174.634517
L 160.794144 184.049551
L 161.241109 187.49535
L 161.702973 180.742977
L 162.164838 184.510732
L 162.582005 183.127191
L 163.04387 177.392896
L 163.952699 187.756395
L 164.399665 174.678024
L 164.861529 188.722263
L 165.323393 178.611107
L 165.770359 172.842005
L 166.232223 181.247665
L 166.679188 179.629184
L 167.141053 176.009355
L 167.602917 184.014745
L 168.020085 177.227567
L 168.481949 179.829319
L 168.928914 178.785137
L 169.390778 179.66399
L 169.837744 173.79047
L 170.299608 186.233631
L 170.761472 172.685378
L 171.208438 170.988583
L 171.670302 178.51539
L 172.117268 171.867436
L 172.579132 179.333333
L 173.040996 178.097718
L 173.458164 168.2041
L 173.920028 175.374145
L 174.366993 177.07094
L 174.828858 167.977861
L 175.275823 169.909596
L 175.737687 178.715525
L 176.199552 167.099008
L 176.646517 167.925652
L 177.108381 165.758975
L 177.555347 166.59432
L 178.017211 176.38352
L 178.479075 168.630474
L 178.911142 163.374761
L 179.373006 170.318567
L 179.819972 162.974492
L 180.281836 164.262315
L 180.728801 170.640523
L 181.190665 169.726864
L 181.65253 162.304476
L 182.561359 158.014631
L 183.008325 164.653883
L 183.470189 168.247608
L 183.932053 170.649225
L 184.349221 152.393454
L 184.811085 169.613745
L 185.258051 150.774973
L 185.719915 158.580229
L 186.16688 161.338608
L 186.628745 162.434998
L 187.090609 156.665896
L 187.537574 147.007219
L 187.999439 147.337877
L 188.446404 158.275676
L 188.908268 155.865357
L 189.370133 156.004582
L 189.7873 147.59022
L 190.249165 149.400135
L 190.69613 138.584157
L 191.157994 147.520608
L 191.60496 144.301049
L 192.066824 153.594263
L 192.528688 150.975108
L 192.975654 131.179171
L 193.437518 135.573434
L 193.884483 143.996496
L 194.346348 147.790355
L 194.808212 149.83521
L 195.22538 138.070767
L 195.687244 131.614246
L 196.134209 128.533911
L 196.596073 140.716027
L 197.043039 129.543287
L 197.504903 144.910155
L 197.966767 127.394013
L 198.413733 120.485014
L 198.875597 132.432188
L 199.322563 130.561363
L 199.784427 143.67454
L 200.246291 135.651747
L 200.678358 122.747407
L 201.140222 117.439485
L 201.587187 120.102147
L 202.049052 100.254001
L 202.496017 107.145597
L 202.957881 128.264165
L 203.419746 119.162384
L 203.866711 105.31828
L 204.328575 116.525826
L 204.775541 110.138917
L 205.237405 137.261527
L 205.699269 129.351853
L 206.116437 97.878488
L 206.578301 116.43011
L 207.025267 115.873213
L 207.487131 106.797537
L 207.934096 119.37122
L 208.39596 126.306325
L 208.857825 114.855136
L 209.30479 109.303572
L 209.766654 111.800906
L 210.21362 112.470922
L 210.675484 131.126962
L 211.137348 126.027876
L 211.554516 97.852384
L 212.01638 123.97432
L 212.463346 108.8859
L 212.92521 113.4977
L 213.372175 119.275504
L 213.83404 117.630918
L 214.295904 112.088056
L 214.742869 95.459468
L 215.204734 97.895891
L 215.651699 118.640293
L 216.113563 127.48973
L 216.575428 118.84913
L 216.992595 89.385813
L 217.45446 117.570007
L 217.901425 73.348929
L 218.363289 92.875119
L 218.810255 101.150256
L 219.272119 101.019734
L 219.733983 96.312216
L 220.180949 67.971395
L 220.642813 84.234519
L 221.089778 93.74527
L 221.551643 90.812861
L 222.013507 78.665552
L 222.445573 71.260566
L 222.907438 76.229129
L 223.354403 64.786642
L 223.816267 73.288018
L 224.263233 58.538957
L 224.725097 96.329619
L 225.633927 37.376882
L 226.095791 74.575842
L 226.542756 63.655445
L 227.004621 79.309464
L 227.466485 62.654772
L 227.883653 35.941133
L 228.345517 57.990762
L 228.792482 31.703497
L 229.254347 161.181981
L 229.254347 161.181981
" clip-path="url(#pf9a82ac8f4)" style="fill: none; stroke: #2e86ab; stroke-opacity: 0.8; stroke-width: 1.2; stroke-linecap: square"/>
   </g>
   <g id="patch_3">
    <path d="M 35.443438 248.179688
L 35.443438 20.879687
" style="fill: none; stroke: #000000; stroke-width: 0.6; stroke-linejoin: miter; stroke-linecap: square"/>
   </g>
   <g id="patch_4">
    <path d="M 35.443438 248.179688
L 238.483437 248.179688
" style="fill: none; stroke: #000000; stroke-width: 0.6; stroke-linejoin: miter; stroke-linecap: square"/>
   </g>
   <g id="text_13">
    <g id="patch_5">
     <path d="M 203.293419 48.334625
L 234.422638 48.334625
Q 236.522638 48.334625 236.522638 46.234625
L 236.522638 32.326719
Q 236.522638 30.226719 234.422638 30.226719
L 203.293419 30.226719
Q 201.193419 30.226719 201.193419 32.326719
L 201.193419 46.234625
Q 201.193419 48.334625 203.293419 48.334625
z
" style="fill: #ffffff; opacity: 0.9; stroke: #000000; stroke-linejoin: miter"/>
    </g>
    <!-- Peak: 24k -->
    <g transform="translate(203.293419 37.255156) scale(0.07 -0.07)">
     <defs>
      <path id="ArialMT-50" d="M 494 0
L 494 4581
L 2222 4581
Q 2678 4581 2919 4538
Q 3256 4481 3484 4323
Q 3713 4166 3852 3881
Q 3991 3597 3991 3256
Q 3991 2672 3619 2267
Q 3247 1863 2275 1863
L 1100 1863
L 1100 0
L 494 0
z
M 1100 2403
L 2284 2403
Q 2872 2403 3119 2622
Q 3366 2841 3366 3238
Q 3366 3525 3220 3729
Q 3075 3934 2838 4000
Q 2684 4041 2272 4041
L 1100 4041
L 1100 2403
z
" transform="scale(0.015625)"/>
      <path id="ArialMT-65" d="M 2694 1069
L 3275 997
Q 3138 488 2766 206
Q 2394 -75 1816 -75
Q 1088 -75 661 373
Q 234 822 234 1631
Q 234 2469 665 2931
Q 1097 3394 1784 3394
Q 2450 3394 2872 2941
Q 3294 2488 3294 1666
Q 3294 1616 3291 1516
L 816 1516
Q 847 969 1125 678
Q 1403 388 1819 388
Q 2128 388 2347 550
Q 2566 713 2694 1069
z
M 847 1978
L 2700 1978
Q 2663 2397 2488 2606
Q 2219 2931 1791 2931
Q 1403 2931 1139 2672
Q 875 2413 847 1978
z
" transform="scale(0.015625)"/>
      <path id="ArialMT-61" d="M 2588 409
Q 2275 144 1986 34
Q 1697 -75 1366 -75
Q 819 -75 525 192
Q 231 459 231 875
Q 231 1119 342 1320
Q 453 1522 633 1644
Q 813 1766 1038 1828
Q 1203 1872 1538 1913
Q 2219 1994 2541 2106
Q 2544 2222 2544 2253
Q 2544 2597 2384 2738
Q 2169 2928 1744 2928
Q 1347 2928 1158 2789
Q 969 2650 878 2297
L 328 2372
Q 403 2725 575 2942
Q 747 3159 1072 3276
Q 1397 3394 1825 3394
Q 2250 3394 2515 3294
Q 2781 3194 2906 3042
Q 3031 2891 3081 2659
Q 3109 2516 3109 2141
L 3109 1391
Q 3109 606 3145 398
Q 3181 191 3288 0
L 2700 0
Q 2613 175 2588 409
z
M 2541 1666
Q 2234 1541 1622 1453
Q 1275 1403 1131 1340
Q 988 1278 909 1158
Q 831 1038 831 891
Q 831 666 1001 516
Q 1172 366 1500 366
Q 1825 366 2078 508
Q 2331 650 2450 897
Q 2541 1088 2541 1459
L 2541 1666
z
" transform="scale(0.015625)"/>
      <path id="ArialMT-3a" d="M 578 2678
L 578 3319
L 1219 3319
L 1219 2678
L 578 2678
z
M 578 0
L 578 641
L 1219 641
L 1219 0
L 578 0
z
" transform="scale(0.015625)"/>
      <path id="ArialMT-20" transform="scale(0.015625)"/>
      <path id="ArialMT-34" d="M 2069 0
L 2069 1097
L 81 1097
L 81 1613
L 2172 4581
L 2631 4581
L 2631 1613
L 3250 1613
L 3250 1097
L 2631 1097
L 2631 0
L 2069 0
z
M 2069 1613
L 2069 3678
L 634 1613
L 2069 1613
z
" transform="scale(0.015625)"/>
     </defs>
     <use xlink:href="#ArialMT-50"/>
     <use xlink:href="#ArialMT-65" transform="translate(66.699219 0)"/>
     <use xlink:href="#ArialMT-61" transform="translate(122.314453 0)"/>
     <use xlink:href="#ArialMT-6b" transform="translate(177.929688 0)"/>
     <use xlink:href="#ArialMT-3a" transform="translate(227.929688 0)"/>
     <use xlink:href="#ArialMT-20" transform="translate(255.712891 0)"/>
     <use xlink:href="#ArialMT-32" transform="translate(283.496094 0)"/>
     <use xlink:href="#ArialMT-34" transform="translate(339.111328 0)"/>
     <use xlink:href="#ArialMT-6b" transform="translate(394.726562 0)"/>
    </g>
    <!-- (2025) -->
    <g transform="translate(214.19045 44.761344) scale(0.07 -0.07)">
     <defs>
      <path id="ArialMT-28" d="M 1497 -1347
Q 1031 -759 709 28
Q 388 816 388 1659
Q 388 2403 628 3084
Q 909 3875 1497 4659
L 1900 4659
Q 1522 4009 1400 3731
Q 1209 3300 1100 2831
Q 966 2247 966 1656
Q 966 153 1900 -1347
L 1497 -1347
z
" transform="scale(0.015625)"/>
      <path id="ArialMT-29" d="M 791 -1347
L 388 -1347
Q 1322 153 1322 1656
Q 1322 2244 1188 2822
Q 1081 3291 891 3722
Q 769 4003 388 4659
L 791 4659
Q 1378 3875 1659 3084
Q 1900 2403 1900 1659
Q 1900 816 1576 28
Q 1253 -759 791 -1347
z
" transform="scale(0.015625)"/>
     </defs>
     <use xlink:href="#ArialMT-28"/>
     <use xlink:href="#ArialMT-32" transform="translate(33.300781 0)"/>
     <use xlink:href="#ArialMT-30" transform="translate(88.916016 0)"/>
     <use xlink:href="#ArialMT-32" transform="translate(144.53125 0)"/>
     <use xlink:href="#ArialMT-35" transform="translate(200.146484 0)"/>
     <use xlink:href="#ArialMT-29" transform="translate(255.761719 0)"/>
    </g>
   </g>
   <g id="text_14">
    <!-- arXiv Preprint Growth (1991-2025) -->
    <g transform="translate(56.660312 10.879687) scale(0.1 -0.1)">
     <defs>
      <path id="Arial-BoldMT-58" d="M 0 0
L 1566 2391
L 147 4581
L 1228 4581
L 2147 3109
L 3047 4581
L 4119 4581
L 2694 2356
L 4259 0
L 3144 0
L 2128 1584
L 1109 0
L 0 0
z
" transform="scale(0.015625)"/>
      <path id="Arial-BoldMT-76" d="M 1372 0
L 34 3319
L 956 3319
L 1581 1625
L 1763 1059
Q 1834 1275 1853 1344
Q 1897 1484 1947 1625
L 2578 3319
L 3481 3319
L 2163 0
L 1372 0
z
" transform="scale(0.015625)"/>
      <path id="Arial-BoldMT-50" d="M 466 0
L 466 4581
L 1950 4581
Q 2794 4581 3050 4513
Q 3444 4409 3709 4064
Q 3975 3719 3975 3172
Q 3975 2750 3822 2462
Q 3669 2175 3433 2011
Q 3197 1847 2953 1794
Q 2622 1728 1994 1728
L 1391 1728
L 1391 0
L 466 0
z
M 1391 3806
L 1391 2506
L 1897 2506
Q 2444 2506 2628 2578
Q 2813 2650 2917 2803
Q 3022 2956 3022 3159
Q 3022 3409 2875 3571
Q 2728 3734 2503 3775
Q 2338 3806 1838 3806
L 1391 3806
z
" transform="scale(0.015625)"/>
      <path id="Arial-BoldMT-70" d="M 434 3319
L 1253 3319
L 1253 2831
Q 1413 3081 1684 3237
Q 1956 3394 2288 3394
Q 2866 3394 3269 2941
Q 3672 2488 3672 1678
Q 3672 847 3265 386
Q 2859 -75 2281 -75
Q 2006 -75 1782 34
Q 1559 144 1313 409
L 1313 -1263
L 434 -1263
L 434 3319
z
M 1303 1716
Q 1303 1156 1525 889
Q 1747 622 2066 622
Q 2372 622 2575 867
Q 2778 1113 2778 1672
Q 2778 2194 2568 2447
Q 2359 2700 2050 2700
Q 1728 2700 1515 2451
Q 1303 2203 1303 1716
z
" transform="scale(0.015625)"/>
      <path id="Arial-BoldMT-47" d="M 2597 1684
L 2597 2456
L 4591 2456
L 4591 631
Q 4300 350 3748 136
Q 3197 -78 2631 -78
Q 1913 -78 1378 223
Q 844 525 575 1086
Q 306 1647 306 2306
Q 306 3022 606 3578
Q 906 4134 1484 4431
Q 1925 4659 2581 4659
Q 3434 4659 3914 4301
Q 4394 3944 4531 3313
L 3613 3141
Q 3516 3478 3248 3673
Q 2981 3869 2581 3869
Q 1975 3869 1617 3484
Q 1259 3100 1259 2344
Q 1259 1528 1621 1120
Q 1984 713 2572 713
Q 2863 713 3155 827
Q 3447 941 3656 1103
L 3656 1684
L 2597 1684
z
" transform="scale(0.015625)"/>
      <path id="Arial-BoldMT-77" d="M 1078 0
L 28 3319
L 881 3319
L 1503 1144
L 2075 3319
L 2922 3319
L 3475 1144
L 4109 3319
L 4975 3319
L 3909 0
L 3066 0
L 2494 2134
L 1931 0
L 1078 0
z
" transform="scale(0.015625)"/>
      <path id="Arial-BoldMT-28" d="M 1916 -1347
L 1313 -1347
Q 834 -625 584 153
Q 334 931 334 1659
Q 334 2563 644 3369
Q 913 4069 1325 4659
L 1925 4659
Q 1497 3713 1336 3048
Q 1175 2384 1175 1641
Q 1175 1128 1270 590
Q 1366 53 1531 -431
Q 1641 -750 1916 -1347
z
" transform="scale(0.015625)"/>
      <path id="Arial-BoldMT-31" d="M 2519 0
L 1641 0
L 1641 3309
Q 1159 2859 506 2644
L 506 3441
Q 850 3553 1253 3867
Q 1656 4181 1806 4600
L 2519 4600
L 2519 0
z
" transform="scale(0.015625)"/>
      <path id="Arial-BoldMT-39" d="M 291 1059
L 1141 1153
Q 1172 894 1303 769
Q 1434 644 1650 644
Q 1922 644 2112 894
Q 2303 1144 2356 1931
Q 2025 1547 1528 1547
Q 988 1547 595 1964
Q 203 2381 203 3050
Q 203 3747 617 4173
Q 1031 4600 1672 4600
Q 2369 4600 2816 4061
Q 3263 3522 3263 2288
Q 3263 1031 2797 475
Q 2331 -81 1584 -81
Q 1047 -81 715 205
Q 384 491 291 1059
z
M 2278 2978
Q 2278 3403 2083 3637
Q 1888 3872 1631 3872
Q 1388 3872 1227 3680
Q 1066 3488 1066 3050
Q 1066 2606 1241 2398
Q 1416 2191 1678 2191
Q 1931 2191 2104 2391
Q 2278 2591 2278 2978
z
" transform="scale(0.015625)"/>
      <path id="Arial-BoldMT-2d" d="M 359 1222
L 359 2100
L 2084 2100
L 2084 1222
L 359 1222
z
" transform="scale(0.015625)"/>
      <path id="Arial-BoldMT-32" d="M 3238 816
L 3238 0
L 159 0
Q 209 463 459 877
Q 709 1291 1447 1975
Q 2041 2528 2175 2725
Q 2356 2997 2356 3263
Q 2356 3556 2198 3714
Q 2041 3872 1763 3872
Q 1488 3872 1325 3706
Q 1163 3541 1138 3156
L 263 3244
Q 341 3969 753 4284
Q 1166 4600 1784 4600
Q 2463 4600 2850 4234
Q 3238 3869 3238 3325
Q 3238 3016 3127 2736
Q 3016 2456 2775 2150
Q 2616 1947 2200 1565
Q 1784 1184 1673 1059
Q 1563 934 1494 816
L 3238 816
z
" transform="scale(0.015625)"/>
      <path id="Arial-BoldMT-30" d="M 1756 4600
Q 2422 4600 2797 4125
Q 3244 3563 3244 2259
Q 3244 959 2794 391
Q 2422 -78 1756 -78
Q 1088 -78 678 436
Q 269 950 269 2269
Q 269 3563 719 4131
Q 1091 4600 1756 4600
z
M 1756 3872
Q 1597 3872 1472 3770
Q 1347 3669 1278 3406
Q 1188 3066 1188 2259
Q 1188 1453 1269 1151
Q 1350 850 1473 750
Q 1597 650 1756 650
Q 1916 650 2041 751
Q 2166 853 2234 1116
Q 2325 1453 2325 2259
Q 2325 3066 2244 3367
Q 2163 3669 2039 3770
Q 1916 3872 1756 3872
z
" transform="scale(0.015625)"/>
      <path id="Arial-BoldMT-35" d="M 284 1178
L 1159 1269
Q 1197 972 1381 798
Q 1566 625 1806 625
Q 2081 625 2272 848
Q 2463 1072 2463 1522
Q 2463 1944 2273 2155
Q 2084 2366 1781 2366
Q 1403 2366 1103 2031
L 391 2134
L 841 4519
L 3163 4519
L 3163 3697
L 1506 3697
L 1369 2919
Q 1663 3066 1969 3066
Q 2553 3066 2959 2641
Q 3366 2216 3366 1538
Q 3366 972 3038 528
Q 2591 -78 1797 -78
Q 1163 -78 763 262
Q 363 603 284 1178
z
" transform="scale(0.015625)"/>
      <path id="Arial-BoldMT-29" d="M 216 -1347
Q 475 -791 581 -494
Q 688 -197 778 190
Q 869 578 912 926
Q 956 1275 956 1641
Q 956 2384 797 3048
Q 638 3713 209 4659
L 806 4659
Q 1278 3988 1539 3234
Q 1800 2481 1800 1706
Q 1800 1053 1594 306
Q 1359 -531 822 -1347
L 216 -1347
z
" transform="scale(0.015625)"/>
     </defs>
     <use xlink:href="#Arial-BoldMT-61"/>
     <use xlink:href="#Arial-BoldMT-72" transform="translate(55.615234 0)"/>
     <use xlink:href="#Arial-BoldMT-58" transform="translate(94.53125 0)"/>
     <use xlink:href="#Arial-BoldMT-69" transform="translate(161.230469 0)"/>
     <use xlink:href="#Arial-BoldMT-76" transform="translate(189.013672 0)"/>
     <use xlink:href="#Arial-BoldMT-20" transform="translate(244.628906 0)"/>
     <use xlink:href="#Arial-BoldMT-50" transform="translate(272.412109 0)"/>
     <use xlink:href="#Arial-BoldMT-72" transform="translate(339.111328 0)"/>
     <use xlink:href="#Arial-BoldMT-65" transform="translate(378.027344 0)"/>
     <use xlink:href="#Arial-BoldMT-70" transform="translate(433.642578 0)"/>
     <use xlink:href="#Arial-BoldMT-72" transform="translate(494.726562 0)"/>
     <use xlink:href="#Arial-BoldMT-69" transform="translate(533.642578 0)"/>
     <use xlink:href="#Arial-BoldMT-6e" transform="translate(561.425781 0)"/>
     <use xlink:href="#Arial-BoldMT-74" transform="translate(622.509766 0)"/>
     <use xlink:href="#Arial-BoldMT-20" transform="translate(655.810547 0)"/>
     <use xlink:href="#Arial-BoldMT-47" transform="translate(683.59375 0)"/>
     <use xlink:href="#Arial-BoldMT-72" transform="translate(761.376953 0)"/>
     <use xlink:href="#Arial-BoldMT-6f" transform="translate(800.292969 0)"/>
     <use xlink:href="#Arial-BoldMT-77" transform="translate(861.376953 0)"/>
     <use xlink:href="#Arial-BoldMT-74" transform="translate(939.160156 0)"/>
     <use xlink:href="#Arial-BoldMT-68" transform="translate(972.460938 0)"/>
     <use xlink:href="#Arial-BoldMT-20" transform="translate(1033.544922 0)"/>
     <use xlink:href="#Arial-BoldMT-28" transform="translate(1061.328125 0)"/>
     <use xlink:href="#Arial-BoldMT-31" transform="translate(1094.628906 0)"/>
     <use xlink:href="#Arial-BoldMT-39" transform="translate(1150.244141 0)"/>
     <use xlink:href="#Arial-BoldMT-39" transform="translate(1205.859375 0)"/>
     <use xlink:href="#Arial-BoldMT-31" transform="translate(1261.474609 0)"/>
     <use xlink:href="#Arial-BoldMT-2d" transform="translate(1317.089844 0)"/>
     <use xlink:href="#Arial-BoldMT-32" transform="translate(1350.390625 0)"/>
     <use xlink:href="#Arial-BoldMT-30" transform="translate(1406.005859 0)"/>
     <use xlink:href="#Arial-BoldMT-32" transform="translate(1461.621094 0)"/>
     <use xlink:href="#Arial-BoldMT-35" transform="translate(1517.236328 0)"/>
     <use xlink:href="#Arial-BoldMT-29" transform="translate(1572.851562 0)"/>
    </g>
   </g>
  </g>
 </g>
 <defs>
  <clipPath id="pf9a82ac8f4">
   <rect x="35.443438" y="20.879687" width="203.04" height="227.3"/>
  </clipPath>
 </defs>
</svg>
